# xmcd
#
# Track frame offsets:
#	150
#	14092
#	29146
#	47176
#	62323
#	75890
#	86706
#	101358
#	114910
#	129873
#
# Disc length: 2020 seconds
#
# Revision: 2
# Processed by: cddbd v1.5.2PL0 Copyright (c) Steve Scherf et al.
# Submitted via: audiograbber 1.83.01
#
DISCID=7207e20a
DTITLE=Daniel Wilson - Mon Petit Ange
DYEAR=1900
DGENRE=Country
TTITLE0=Mon Petit Ange (Daniel Wilson)
TTITLE1=There Goes My Heart (Mavericks)
TTITLE2=Pizziricco (Mavericks)
TTITLE3=Cherche Femme à Marier (Daniel Wilson)
TTITLE4=I Don't Care If You Love Me Anyumore (Mavericks)
TTITLE5=Chanteur Fantaisiste (Daniel Wilson)
TTITLE6=Va De L'avant (Daniel Wilson)
TTITLE7=Such A Night (Elvis Presley)
TTITLE8=La Pilule Bleue (Daniel Wilson)
TTITLE9=Profitons De La Vie (Denis Cormier)
EXTD=
EXTT0=
EXTT1=
EXTT2=
EXTT3=
EXTT4=
EXTT5=
EXTT6=
EXTT7=
EXTT8=
EXTT9=
PLAYORDER=
